<svg width="30" height="30" viewBox="0 0 30 30" fill="none" xmlns="http://www.w3.org/2000/svg">
<path d="M15 30C23.2843 30 30 23.2843 30 15C30 6.71573 23.2843 0 15 0C6.71573 0 0 6.71573 0 15C0 23.2843 6.71573 30 15 30Z" fill="#872BFF"/>
<path d="M24.1881 10.78C23.5453 11.065 22.8538 11.2578 22.1286 11.3439C22.869 10.9003 23.4372 10.1984 23.7054 9.36067C23.0126 9.77165 22.2449 10.0698 21.4286 10.2305C20.7746 9.53394 19.8427 9.09863 18.8109 9.09863C16.8311 9.09863 15.2254 10.7043 15.2254 12.6841C15.2254 12.9651 15.2573 13.2386 15.3188 13.5012C12.339 13.3517 9.6969 11.9244 7.92839 9.75454C7.61982 10.284 7.44281 10.9003 7.44281 11.5573C7.44281 12.8009 8.07626 13.8988 9.03779 14.5416C8.45033 14.5232 7.8971 14.3619 7.41393 14.0927C7.41367 14.1079 7.41366 14.1231 7.41366 14.1381C7.41366 15.8753 8.65007 17.3243 10.29 17.6535C9.98943 17.7358 9.67203 17.7794 9.34555 17.7794C9.11399 17.7794 8.88965 17.7572 8.67093 17.7155C9.1271 19.1396 10.4509 20.1763 12.0202 20.2054C10.7929 21.1672 9.24715 21.7403 7.56688 21.7403C7.2781 21.7403 6.99199 21.7234 6.71204 21.69C8.29792 22.7077 10.183 23.301 12.2077 23.301C18.8026 23.301 22.4091 17.8377 22.4091 13.0993C22.4091 12.944 22.4056 12.7891 22.3987 12.6357C23.0998 12.1303 23.7076 11.499 24.1881 10.78Z" fill="white"/>
</svg>
